<mxfile host="app.diagrams.net" modified="2021-11-16T09:34:43.553Z" agent="5.0 (X11)" etag="CT2JrgdPqwwYRytXgS_5" version="15.7.4" type="github">
  <diagram id="_tueIql3HZxJAc3FDs42" name="Page-1">
    <mxGraphModel dx="1422" dy="791" grid="1" gridSize="10" guides="1" tooltips="1" connect="1" arrows="1" fold="1" page="1" pageScale="1" pageWidth="827" pageHeight="1169" math="0" shadow="0">
      <root>
        <mxCell id="0" />
        <mxCell id="1" parent="0" />
        <mxCell id="6HClUx852G3s7_VeOv-5-1" value="構造化データ" style="rounded=0;whiteSpace=wrap;html=1;" vertex="1" parent="1">
          <mxGeometry x="90" y="130" width="120" height="60" as="geometry" />
        </mxCell>
        <mxCell id="6HClUx852G3s7_VeOv-5-2" value="テキストデータ" style="rounded=0;whiteSpace=wrap;html=1;" vertex="1" parent="1">
          <mxGeometry x="90" y="260" width="120" height="60" as="geometry" />
        </mxCell>
        <mxCell id="6HClUx852G3s7_VeOv-5-3" value="アイデア1" style="text;strokeColor=none;fillColor=none;html=1;fontSize=24;fontStyle=1;verticalAlign=middle;align=center;" vertex="1" parent="1">
          <mxGeometry x="350" y="20" width="100" height="40" as="geometry" />
        </mxCell>
        <mxCell id="6HClUx852G3s7_VeOv-5-5" value="" style="shape=cylinder3;whiteSpace=wrap;html=1;boundedLbl=1;backgroundOutline=1;size=15;" vertex="1" parent="1">
          <mxGeometry x="290" y="120" width="60" height="80" as="geometry" />
        </mxCell>
        <mxCell id="6HClUx852G3s7_VeOv-5-6" value="" style="shape=cylinder3;whiteSpace=wrap;html=1;boundedLbl=1;backgroundOutline=1;size=15;" vertex="1" parent="1">
          <mxGeometry x="290" y="250" width="60" height="80" as="geometry" />
        </mxCell>
        <mxCell id="6HClUx852G3s7_VeOv-5-8" value="Extends" style="endArrow=block;endSize=16;endFill=0;html=1;rounded=0;entryX=0;entryY=0.5;entryDx=0;entryDy=0;entryPerimeter=0;" edge="1" parent="1" target="6HClUx852G3s7_VeOv-5-6">
          <mxGeometry x="-0.875" y="10" width="160" relative="1" as="geometry">
            <mxPoint x="210" y="289.5" as="sourcePoint" />
            <mxPoint x="370" y="289.5" as="targetPoint" />
            <mxPoint as="offset" />
          </mxGeometry>
        </mxCell>
        <mxCell id="6HClUx852G3s7_VeOv-5-9" value="Extends" style="endArrow=block;endSize=16;endFill=0;html=1;rounded=0;" edge="1" parent="1">
          <mxGeometry x="-0.875" y="10" width="160" relative="1" as="geometry">
            <mxPoint x="210" y="159.5" as="sourcePoint" />
            <mxPoint x="290" y="160" as="targetPoint" />
            <mxPoint as="offset" />
          </mxGeometry>
        </mxCell>
        <mxCell id="6HClUx852G3s7_VeOv-5-11" value="" style="shape=cylinder3;whiteSpace=wrap;html=1;boundedLbl=1;backgroundOutline=1;size=15;" vertex="1" parent="1">
          <mxGeometry x="420" y="180" width="50" height="90" as="geometry" />
        </mxCell>
        <mxCell id="6HClUx852G3s7_VeOv-5-12" value="" style="rounded=0;whiteSpace=wrap;html=1;" vertex="1" parent="1">
          <mxGeometry x="560" y="50" width="40" height="140" as="geometry" />
        </mxCell>
        <mxCell id="6HClUx852G3s7_VeOv-5-13" value="" style="rounded=0;whiteSpace=wrap;html=1;" vertex="1" parent="1">
          <mxGeometry x="560" y="250" width="40" height="140" as="geometry" />
        </mxCell>
        <mxCell id="6HClUx852G3s7_VeOv-5-15" value="Extends" style="endArrow=block;endSize=16;endFill=0;html=1;rounded=0;entryX=0;entryY=0.5;entryDx=0;entryDy=0;entryPerimeter=0;" edge="1" parent="1" target="6HClUx852G3s7_VeOv-5-11">
          <mxGeometry x="-0.875" y="10" width="160" relative="1" as="geometry">
            <mxPoint x="350" y="289.5" as="sourcePoint" />
            <mxPoint x="430" y="290" as="targetPoint" />
            <mxPoint as="offset" />
          </mxGeometry>
        </mxCell>
        <mxCell id="6HClUx852G3s7_VeOv-5-16" value="Extends" style="endArrow=block;endSize=16;endFill=0;html=1;rounded=0;entryX=0;entryY=0.5;entryDx=0;entryDy=0;entryPerimeter=0;exitX=1;exitY=0.5;exitDx=0;exitDy=0;exitPerimeter=0;" edge="1" parent="1" source="6HClUx852G3s7_VeOv-5-5" target="6HClUx852G3s7_VeOv-5-11">
          <mxGeometry x="-0.875" y="10" width="160" relative="1" as="geometry">
            <mxPoint x="360" y="299.5" as="sourcePoint" />
            <mxPoint x="430" y="230" as="targetPoint" />
            <mxPoint as="offset" />
          </mxGeometry>
        </mxCell>
        <mxCell id="6HClUx852G3s7_VeOv-5-17" value="Extends" style="endArrow=block;endSize=16;endFill=0;html=1;rounded=0;entryX=0;entryY=0.5;entryDx=0;entryDy=0;exitX=1;exitY=0.5;exitDx=0;exitDy=0;exitPerimeter=0;" edge="1" parent="1" source="6HClUx852G3s7_VeOv-5-11" target="6HClUx852G3s7_VeOv-5-13">
          <mxGeometry x="-0.875" y="10" width="160" relative="1" as="geometry">
            <mxPoint x="480" y="219.5" as="sourcePoint" />
            <mxPoint x="550" y="150" as="targetPoint" />
            <mxPoint as="offset" />
          </mxGeometry>
        </mxCell>
        <mxCell id="6HClUx852G3s7_VeOv-5-18" value="Extends" style="endArrow=block;endSize=16;endFill=0;html=1;rounded=0;entryX=0;entryY=0.5;entryDx=0;entryDy=0;exitX=1;exitY=0.5;exitDx=0;exitDy=0;exitPerimeter=0;" edge="1" parent="1" source="6HClUx852G3s7_VeOv-5-11" target="6HClUx852G3s7_VeOv-5-12">
          <mxGeometry x="-0.875" y="10" width="160" relative="1" as="geometry">
            <mxPoint x="490" y="229.5" as="sourcePoint" />
            <mxPoint x="570" y="310" as="targetPoint" />
            <mxPoint as="offset" />
          </mxGeometry>
        </mxCell>
      </root>
    </mxGraphModel>
  </diagram>
</mxfile>
